# xmcd CD database file
#
# Track frame offsets:
#	150
#	18690
#	37245
#	52171
#	73046
#	93118
#	110166
#	129955
#	154859
#	182332
#	206100
#	220814
#	238047
#
# Disc length: 3484 seconds
#
# Revision: 0
# Processed by: cddbd v1.5.1PL0 Copyright (c) Steve Scherf et al.
# Submitted via: CDex 1.51
#
DISCID=bf0d9a0d
DTITLE=Freedom For King Kong - Marce Ou Reve
DYEAR=2005
DGENRE=Rock
TTITLE0=Marce Ou Reve
TTITLE1=Modern Faust
TTITLE2=Le syndrome de Peter Pan
TTITLE3=Sodocratie
TTITLE4=Les Marionnettistes
TTITLE5=Phenomene
TTITLE6=Amour Propre
TTITLE7=Gun Tune
TTITLE8=Primatologie
TTITLE9=Des Plumes
TTITLE10=Le Figurant
TTITLE11=Les etiquettes
TTITLE12=Oncle Sam
EXTD=YEAR: 2005
EXTT0=
EXTT1=
EXTT2=
EXTT3=
EXTT4=
EXTT5=
EXTT6=
EXTT7=
EXTT8=
EXTT9=
EXTT10=
EXTT11=
EXTT12=
PLAYORDER=
